<svg width="65" height="65" viewBox="0 0 65 65" fill="none" xmlns="http://www.w3.org/2000/svg">
<path d="M32.5 59.5833C28.7986 59.5833 25.3004 58.8724 22.0052 57.4505C18.7101 56.0286 15.8325 54.0877 13.3724 51.6276C10.9123 49.1675 8.97137 46.2899 7.5495 42.9948C6.12762 39.6997 5.41669 36.2014 5.41669 32.5C5.41669 28.7535 6.12762 25.2439 7.5495 21.9714C8.97137 18.6988 10.9123 15.8325 13.3724 13.3724C15.8325 10.9123 18.7101 8.97136 22.0052 7.54948C25.3004 6.12761 28.7986 5.41667 32.5 5.41667C36.2465 5.41667 39.7561 6.12761 43.0287 7.54948C46.3012 8.97136 49.1676 10.9123 51.6276 13.3724C54.0877 15.8325 56.0287 18.6988 57.4505 21.9714C58.8724 25.2439 59.5834 28.7535 59.5834 32.5C59.5834 36.2014 58.8724 39.6997 57.4505 42.9948C56.0287 46.2899 54.0877 49.1675 51.6276 51.6276C49.1676 54.0877 46.3012 56.0286 43.0287 57.4505C39.7561 58.8724 36.2465 59.5833 32.5 59.5833ZM32.5 54.0313C33.6736 52.4063 34.6893 50.7135 35.5469 48.9531C36.4045 47.1927 37.1042 45.3194 37.6459 43.3333H27.3542C27.8959 45.3194 28.5955 47.1927 29.4531 48.9531C30.3108 50.7135 31.3264 52.4063 32.5 54.0313ZM25.4584 52.9479C24.6459 51.4583 23.9349 49.9123 23.3255 48.3099C22.7162 46.7075 22.2084 45.0486 21.8021 43.3333H13.8125C15.1215 45.5903 16.7578 47.5538 18.7214 49.224C20.6849 50.8941 22.9306 52.1354 25.4584 52.9479ZM39.5417 52.9479C42.0695 52.1354 44.3151 50.8941 46.2787 49.224C48.2422 47.5538 49.8785 45.5903 51.1875 43.3333H43.1979C42.7917 45.0486 42.2839 46.7075 41.6745 48.3099C41.0651 49.9123 40.3542 51.4583 39.5417 52.9479ZM11.5104 37.9167H20.7188C20.5834 37.0139 20.4818 36.1224 20.4141 35.2422C20.3464 34.362 20.3125 33.4479 20.3125 32.5C20.3125 31.5521 20.3464 30.638 20.4141 29.7578C20.4818 28.8776 20.5834 27.9861 20.7188 27.0833H11.5104C11.2847 27.9861 11.1155 28.8776 11.0026 29.7578C10.8898 30.638 10.8334 31.5521 10.8334 32.5C10.8334 33.4479 10.8898 34.362 11.0026 35.2422C11.1155 36.1224 11.2847 37.0139 11.5104 37.9167ZM26.1354 37.9167H38.8646C39 37.0139 39.1016 36.1224 39.1693 35.2422C39.237 34.362 39.2709 33.4479 39.2709 32.5C39.2709 31.5521 39.237 30.638 39.1693 29.7578C39.1016 28.8776 39 27.9861 38.8646 27.0833H26.1354C26 27.9861 25.8985 28.8776 25.8307 29.7578C25.763 30.638 25.7292 31.5521 25.7292 32.5C25.7292 33.4479 25.763 34.362 25.8307 35.2422C25.8985 36.1224 26 37.0139 26.1354 37.9167ZM44.2813 37.9167H53.4896C53.7153 37.0139 53.8846 36.1224 53.9974 35.2422C54.1103 34.362 54.1667 33.4479 54.1667 32.5C54.1667 31.5521 54.1103 30.638 53.9974 29.7578C53.8846 28.8776 53.7153 27.9861 53.4896 27.0833H44.2813C44.4167 27.9861 44.5182 28.8776 44.586 29.7578C44.6537 30.638 44.6875 31.5521 44.6875 32.5C44.6875 33.4479 44.6537 34.362 44.586 35.2422C44.5182 36.1224 44.4167 37.0139 44.2813 37.9167ZM43.1979 21.6667H51.1875C49.8785 19.4097 48.2422 17.4462 46.2787 15.776C44.3151 14.1059 42.0695 12.8646 39.5417 12.0521C40.3542 13.5417 41.0651 15.0877 41.6745 16.6901C42.2839 18.2925 42.7917 19.9514 43.1979 21.6667ZM27.3542 21.6667H37.6459C37.1042 19.6806 36.4045 17.8073 35.5469 16.0469C34.6893 14.2865 33.6736 12.5938 32.5 10.9688C31.3264 12.5938 30.3108 14.2865 29.4531 16.0469C28.5955 17.8073 27.8959 19.6806 27.3542 21.6667ZM13.8125 21.6667H21.8021C22.2084 19.9514 22.7162 18.2925 23.3255 16.6901C23.9349 15.0877 24.6459 13.5417 25.4584 12.0521C22.9306 12.8646 20.6849 14.1059 18.7214 15.776C16.7578 17.4462 15.1215 19.4097 13.8125 21.6667Z" fill="#1D1B20"/>
</svg>
