<svg width="65" height="65" viewBox="0 0 65 65" fill="none" xmlns="http://www.w3.org/2000/svg">
<path d="M2.70831 2.70833H13.5416L20.8 38.9729C21.0476 40.2198 21.726 41.3399 22.7163 42.1371C23.7065 42.9342 24.9456 43.3577 26.2166 43.3333H52.5416C53.8127 43.3577 55.0518 42.9342 56.042 42.1371C57.0323 41.3399 57.7107 40.2198 57.9583 38.9729L62.2916 16.25H16.25M27.0833 56.875C27.0833 58.3708 25.8708 59.5833 24.375 59.5833C22.8792 59.5833 21.6666 58.3708 21.6666 56.875C21.6666 55.3792 22.8792 54.1667 24.375 54.1667C25.8708 54.1667 27.0833 55.3792 27.0833 56.875ZM56.875 56.875C56.875 58.3708 55.6624 59.5833 54.1666 59.5833C52.6709 59.5833 51.4583 58.3708 51.4583 56.875C51.4583 55.3792 52.6709 54.1667 54.1666 54.1667C55.6624 54.1667 56.875 55.3792 56.875 56.875Z" stroke="#1E1E1E" stroke-width="4" stroke-linecap="round" stroke-linejoin="round"/>
</svg>
