<svg width="65" height="65" viewBox="0 0 65 65" fill="none" xmlns="http://www.w3.org/2000/svg">
<path d="M16.25 37.9167H48.75V32.5001H16.25V37.9167ZM16.25 29.7917H48.75V24.3751H16.25V29.7917ZM16.25 21.6667H48.75V16.2501H16.25V21.6667ZM10.8333 48.7501C9.34371 48.7501 8.06854 48.2197 7.00777 47.1589C5.94701 46.0982 5.41663 44.823 5.41663 43.3334V10.8334C5.41663 9.34383 5.94701 8.06866 7.00777 7.00789C8.06854 5.94713 9.34371 5.41675 10.8333 5.41675H54.1666C55.6562 5.41675 56.9314 5.94713 57.9921 7.00789C59.0529 8.06866 59.5833 9.34383 59.5833 10.8334V59.5834L48.75 48.7501H10.8333Z" fill="#1D1B20"/>
</svg>
